<svg width="30" height="30" viewBox="0 0 30 30" fill="none" xmlns="http://www.w3.org/2000/svg">
<rect width="30" height="30" fill="#1E1E1E"/>
<path d="M-366 -225C-366 -226.105 -365.105 -227 -364 -227H4001C4002.1 -227 4003 -226.105 4003 -225V2126C4003 2127.1 4002.1 2128 4001 2128H-364C-365.105 2128 -366 2127.1 -366 2126V-225Z" fill="#444444"/>
<path d="M-364 -227V-226H4001V-227V-228H-364V-227ZM4003 -225H4002V2126H4003H4004V-225H4003ZM4001 2128V2127H-364V2128V2129H4001V2128ZM-366 2126H-365V-225H-366H-367V2126H-366ZM-364 2128V2127C-364.552 2127 -365 2126.55 -365 2126H-366H-367C-367 2127.66 -365.657 2129 -364 2129V2128ZM4003 2126H4002C4002 2126.55 4001.55 2127 4001 2127V2128V2129C4002.66 2129 4004 2127.66 4004 2126H4003ZM4001 -227V-226C4001.55 -226 4002 -225.552 4002 -225H4003H4004C4004 -226.657 4002.66 -228 4001 -228V-227ZM-364 -227V-228C-365.657 -228 -367 -226.657 -367 -225H-366H-365C-365 -225.552 -364.552 -226 -364 -226V-227Z" fill="white" fill-opacity="0.1"/>
<rect width="1400" height="1527.34" transform="translate(-260 -22)" fill="#FAF8FF"/>
<path d="M8.16865 13.7502H25C25.6904 13.7502 26.25 14.3098 26.25 15.0002C26.25 15.6905 25.6904 16.2502 25 16.2502H8.16865L12.2406 20.3221C12.7531 20.8347 12.7531 21.6657 12.2406 22.1783C11.728 22.6908 10.897 22.6908 10.3844 22.1783L4.13442 15.9283C3.62186 15.4157 3.62186 14.5847 4.13442 14.0721L10.3844 7.82211C10.897 7.30954 11.728 7.30954 12.2406 7.82211C12.7531 8.33467 12.7531 9.1657 12.2406 9.67826L8.16865 13.7502Z" fill="#333333"/>
</svg>
