<svg width="19" height="20" viewBox="0 0 19 20" fill="none" xmlns="http://www.w3.org/2000/svg">
<path d="M16.5772 13.3273V15.4044C16.578 15.5972 16.5385 15.7881 16.4612 15.9648C16.384 16.1414 16.2707 16.3 16.1286 16.4304C15.9865 16.5607 15.8187 16.66 15.6361 16.7218C15.4534 16.7835 15.2598 16.8065 15.0678 16.7891C12.9372 16.5576 10.8907 15.8296 9.09259 14.6635C7.41969 13.6005 6.00137 12.1822 4.93834 10.5093C3.76821 8.70302 3.04002 6.64652 2.81275 4.50639C2.79545 4.31493 2.8182 4.12196 2.87956 3.93977C2.94093 3.75758 3.03955 3.59017 3.16916 3.44818C3.29877 3.3062 3.45652 3.19276 3.63238 3.11508C3.80823 3.0374 3.99833 2.9972 4.19058 2.99702H6.2677C6.60372 2.99371 6.92947 3.1127 7.18424 3.3318C7.43901 3.55091 7.60542 3.85518 7.65245 4.1879C7.74012 4.85263 7.90271 5.5053 8.13711 6.13347C8.23027 6.38129 8.25043 6.65062 8.19521 6.90954C8.13999 7.16847 8.0117 7.40614 7.82554 7.59439L6.94623 8.4737C7.93186 10.2071 9.36709 11.6423 11.1005 12.628L11.9798 11.7486C12.168 11.5625 12.4057 11.4342 12.6646 11.379C12.9236 11.3238 13.1929 11.3439 13.4407 11.4371C14.0689 11.6715 14.7216 11.8341 15.3863 11.9217C15.7226 11.9692 16.0298 12.1386 16.2494 12.3977C16.4689 12.6569 16.5856 12.9877 16.5772 13.3273Z" stroke="#212429" stroke-width="1.37978" stroke-linecap="round" stroke-linejoin="round"/>
</svg>
