<svg width="20" height="20" viewBox="0 0 20 20" fill="none" xmlns="http://www.w3.org/2000/svg">
<path d="M13.2418 15.6031V16.3147C13.2418 17.2043 12.5301 17.916 11.6405 17.916H5.59125C4.70165 17.916 3.93066 17.2043 3.93066 16.3147V7.35946C3.93066 6.46986 4.64234 5.75818 5.53194 5.75818H6.42154" stroke="#363636" stroke-width="0.729927" stroke-miterlimit="10" stroke-linecap="round" stroke-linejoin="round"/>
<path d="M15.7911 8.96003V14.0011C15.7911 14.8907 15.0794 15.6024 14.1898 15.6024H8.08126C7.19166 15.6024 6.47998 14.8907 6.47998 14.0011V5.0458C6.47998 4.1562 7.19166 3.44452 8.08126 3.44452H11.2245L11.2838 7.47737V8.90072H15.7911V8.96003Z" stroke="#363636" stroke-width="0.729927" stroke-miterlimit="10" stroke-linecap="round" stroke-linejoin="round"/>
<path d="M15.7912 8.90127H11.2839V7.47792L11.2246 3.44507L15.7912 8.90127Z" stroke="#363636" stroke-width="0.729927" stroke-miterlimit="10" stroke-linecap="round" stroke-linejoin="round"/>
</svg>
