<svg width="17" height="18" viewBox="0 0 17 18" fill="none" xmlns="http://www.w3.org/2000/svg">
<g clip-path="url(#clip0_108_11327)">
<path d="M5.86514 10.605C5.86514 11.494 6.58585 12.2147 7.47489 12.2147H8.96965C9.92219 12.2147 10.6944 11.4426 10.6944 10.49C10.6944 9.53748 9.92219 8.76529 8.96965 8.76529H7.58987C6.63733 8.76529 5.86514 7.99311 5.86514 7.04057C5.86514 6.08803 6.63733 5.31584 7.58987 5.31584H9.08463C9.97367 5.31584 10.6944 6.03655 10.6944 6.92559M8.27976 4.28101V5.31584M8.27976 12.2147V13.2496M15.1787 8.76529C15.1787 12.5755 12.0899 15.6642 8.27976 15.6642C4.4696 15.6642 1.38086 12.5755 1.38086 8.76529C1.38086 4.95514 4.4696 1.86639 8.27976 1.86639C12.0899 1.86639 15.1787 4.95514 15.1787 8.76529Z" stroke="black" stroke-width="1.47177" stroke-linecap="round" stroke-linejoin="round"/>
</g>
<defs>
<clipPath id="clip0_108_11327">
<rect width="16.5574" height="16.5574" fill="white" transform="translate(0.000976562 0.486633)"/>
</clipPath>
</defs>
</svg>
