<svg width="16" height="16" viewBox="0 0 16 16" fill="none" xmlns="http://www.w3.org/2000/svg">
<path d="M3.33325 2L1.33325 4M14.6666 4L12.6666 2M3.99992 12.6667L2.66659 14M11.9999 12.6667L13.3333 14M5.99992 9L7.33325 10.3333L10.3333 7.33333M7.99992 14C9.41441 14 10.771 13.4381 11.7712 12.4379C12.7713 11.4377 13.3333 10.0812 13.3333 8.66667C13.3333 7.25218 12.7713 5.89562 11.7712 4.89543C10.771 3.89524 9.41441 3.33333 7.99992 3.33333C6.58543 3.33333 5.22888 3.89524 4.22868 4.89543C3.22849 5.89562 2.66659 7.25218 2.66659 8.66667C2.66659 10.0812 3.22849 11.4377 4.22868 12.4379C5.22888 13.4381 6.58543 14 7.99992 14Z" stroke="black" stroke-linecap="round" stroke-linejoin="round"/>
</svg>
