<svg width="230" height="179" viewBox="0 0 230 179" fill="none" xmlns="http://www.w3.org/2000/svg">
<path opacity="0.2" d="M42.2297 85.7034C42.3841 85.253 43.0211 85.253 43.1756 85.7034L44.3522 89.134C44.5601 89.7402 45.1302 90.1474 45.7711 90.1474H49.4587C49.9496 90.1474 50.1465 90.7809 49.7422 91.0593L46.8535 93.0475C46.2991 93.4291 46.0668 94.1332 46.2851 94.7698L47.4101 98.05C47.5665 98.506 47.0507 98.8974 46.6537 98.6241L43.5531 96.49C43.0409 96.1374 42.3643 96.1374 41.8522 96.49L38.7516 98.6241C38.3545 98.8974 37.8388 98.506 37.9951 98.05L39.1202 94.7698C39.3385 94.1332 39.1061 93.4291 38.5518 93.0475L35.6631 91.0593C35.2588 90.7809 35.4557 90.1474 35.9466 90.1474H39.6342C40.2751 90.1474 40.8452 89.7402 41.0531 89.134L42.2297 85.7034Z" stroke="#BDBDBD"/>
<path opacity="0.2" d="M37.8146 23.8919C37.9691 23.4415 38.6061 23.4415 38.7606 23.8919L39.9372 27.3225C40.1451 27.9287 40.7151 28.3359 41.356 28.3359H45.0436C45.5345 28.3359 45.7315 28.9694 45.3271 29.2477L42.4385 31.236C41.8841 31.6176 41.6517 32.3217 41.8701 32.9583L42.9951 36.2385C43.1515 36.6945 42.6357 37.0859 42.2386 36.8126L39.1381 34.6785C38.6259 34.3259 37.9493 34.3259 37.4371 34.6785L34.3366 36.8126C33.9395 37.0859 33.4237 36.6945 33.5801 36.2385L34.7051 32.9583C34.9235 32.3217 34.6911 31.6176 34.1367 31.236L31.2481 29.2477C30.8437 28.9694 31.0407 28.3359 31.5316 28.3359H35.2192C35.86 28.3359 36.4301 27.9287 36.638 27.3225L37.8146 23.8919Z" stroke="#BDBDBD"/>
<path opacity="0.2" d="M170.267 37.137C170.422 36.6866 171.059 36.6866 171.213 37.137L172.39 40.5676C172.598 41.1738 173.168 41.581 173.809 41.581H177.496C177.987 41.581 178.184 42.2145 177.78 42.4929L174.891 44.4811C174.337 44.8627 174.104 45.5668 174.323 46.2034L175.448 49.4836C175.604 49.9396 175.088 50.331 174.691 50.0577L171.591 47.9236C171.079 47.571 170.402 47.571 169.89 47.9236L166.789 50.0577C166.392 50.331 165.876 49.9396 166.033 49.4836L167.158 46.2034C167.376 45.5668 167.144 44.8627 166.589 44.4811L163.701 42.4929C163.296 42.2145 163.493 41.581 163.984 41.581H167.672C168.313 41.581 168.883 41.1738 169.091 40.5676L170.267 37.137Z" stroke="#BDBDBD"/>
<path opacity="0.3" d="M95.2086 3.08156C95.3582 2.6209 96.0099 2.6209 96.1596 3.08156L97.3383 6.70906C97.5391 7.3271 98.115 7.74554 98.7648 7.74554H102.579C103.063 7.74554 103.265 8.36534 102.873 8.65005L99.7872 10.892C99.2614 11.2739 99.0415 11.951 99.2423 12.569L100.421 16.1965C100.571 16.6572 100.043 17.0402 99.6515 16.7555L96.5658 14.5136C96.04 14.1317 95.3281 14.1317 94.8024 14.5136L91.7167 16.7555C91.3248 17.0402 90.7976 16.6572 90.9472 16.1965L92.1259 12.569C92.3267 11.951 92.1067 11.2739 91.581 10.892L88.4952 8.65005C88.1034 8.36535 88.3048 7.74554 88.7891 7.74554H92.6033C93.2532 7.74554 93.8291 7.3271 94.0299 6.70906L95.2086 3.08156Z" stroke="#BDBDBD"/>
<path opacity="0.2" d="M201.17 139.95C201.32 139.489 201.972 139.489 202.122 139.95L203.3 143.577C203.501 144.195 204.077 144.614 204.727 144.614H208.541C209.025 144.614 209.227 145.234 208.835 145.518L205.749 147.76C205.223 148.142 205.003 148.819 205.204 149.437L206.383 153.065C206.533 153.525 206.005 153.908 205.613 153.624L202.528 151.382C202.002 151 201.29 151 200.764 151.382L197.679 153.624C197.287 153.908 196.759 153.525 196.909 153.065L198.088 149.437C198.289 148.819 198.069 148.142 197.543 147.76L194.457 145.518C194.065 145.234 194.267 144.614 194.751 144.614H198.565C199.215 144.614 199.791 144.195 199.992 143.577L201.17 139.95Z" stroke="#BDBDBD"/>
<path opacity="0.3" d="M32.2935 149.883C32.4432 149.423 33.0949 149.423 33.2446 149.883L34.4232 153.511C34.624 154.129 35.2 154.547 35.8498 154.547H39.664C40.1483 154.547 40.3497 155.167 39.9579 155.452L36.8721 157.694C36.3464 158.076 36.1264 158.753 36.3272 159.371L37.5059 162.998C37.6556 163.459 37.1283 163.842 36.7365 163.557L33.6507 161.315C33.125 160.933 32.4131 160.933 31.8874 161.315L28.8016 163.557C28.4098 163.842 27.8825 163.459 28.0322 162.998L29.2109 159.371C29.4117 158.753 29.1917 158.076 28.6659 157.694L25.5802 155.452C25.1884 155.167 25.3897 154.547 25.8741 154.547H29.6883C30.3381 154.547 30.9141 154.129 31.1149 153.511L32.2935 149.883Z" stroke="#BDBDBD"/>
<path opacity="0.2" d="M205.586 96.9019C205.735 96.4412 206.387 96.4412 206.537 96.9019L207.715 100.529C207.916 101.147 208.492 101.566 209.142 101.566H212.956C213.44 101.566 213.642 102.186 213.25 102.47L210.164 104.712C209.638 105.094 209.418 105.771 209.619 106.389L210.798 110.017C210.948 110.477 210.42 110.861 210.028 110.576L206.943 108.334C206.417 107.952 205.705 107.952 205.179 108.334L202.094 110.576C201.702 110.861 201.175 110.477 201.324 110.017L202.503 106.389C202.704 105.771 202.484 105.094 201.958 104.712L198.872 102.47C198.48 102.186 198.682 101.566 199.166 101.566H202.98C203.63 101.566 204.206 101.147 204.407 100.529L205.586 96.9019Z" stroke="#BDBDBD"/>
<circle cx="57.0519" cy="50.2213" r="2.25943" fill="#BDBDBD" stroke="#BDBDBD"/>
<circle cx="1.86318" cy="68.9857" r="1.15566" fill="#BDBDBD" stroke="#BDBDBD"/>
<circle cx="15.1083" cy="97.684" r="1.15566" fill="#BDBDBD" stroke="#BDBDBD"/>
<circle cx="28.3539" cy="46.9105" r="1.15566" fill="#BDBDBD" stroke="#BDBDBD"/>
<circle cx="137.627" cy="9.38222" r="1.15566" fill="#BDBDBD" stroke="#BDBDBD"/>
<circle cx="14.0048" cy="142.939" r="1.15566" stroke="#BDBDBD"/>
<circle cx="128.245" cy="39.7356" r="0.603773" fill="#BDBDBD" stroke="#BDBDBD"/>
<circle cx="187.297" cy="123.071" r="2.25943" fill="#BDBDBD" stroke="#BDBDBD"/>
<circle cx="209.372" cy="54.6364" r="2.25943" fill="#BDBDBD" stroke="#BDBDBD"/>
<circle cx="165.222" cy="81.1273" r="1.15566" fill="#BDBDBD" stroke="#BDBDBD"/>
<circle cx="228.137" cy="113.137" r="1.35566" stroke="#BDBDBD" stroke-width="0.6"/>
<rect x="3.57563" y="121.035" width="8.23018" height="8.23018" rx="0.7" transform="rotate(-45 3.57563 121.035)" stroke="#BDBDBD" stroke-width="0.6"/>
<rect x="85.9897" y="35.6787" width="5.28679" height="5.28679" rx="0.7" transform="rotate(-45 85.9897 35.6787)" stroke="#BDBDBD" stroke-width="0.6"/>
<rect x="172.82" y="157.219" width="5.28679" height="5.28679" rx="0.7" transform="rotate(-45 172.82 157.219)" stroke="#BDBDBD" stroke-width="0.6"/>
<rect x="156.631" y="65.1113" width="2.34339" height="2.34339" rx="0.7" transform="rotate(-45 156.631 65.1113)" stroke="#BDBDBD" stroke-width="0.6"/>
<path d="M97.6635 124.261H112.85C113.038 124.261 113.218 124.335 113.351 124.469C113.484 124.602 113.559 124.782 113.559 124.97C113.559 125.158 113.484 125.339 113.351 125.472C113.218 125.605 113.038 125.679 112.85 125.679H97.6635C97.4753 125.679 97.2949 125.605 97.1619 125.472C97.0288 125.339 96.9541 125.158 96.9541 124.97C96.9541 124.782 97.0288 124.602 97.1619 124.469C97.2949 124.335 97.4753 124.261 97.6635 124.261Z" fill="#BDBDBD" stroke="#BDBDBD"/>
<path d="M90.0926 151.672H90.5926V151.172V142.505V142.005H90.0926H81.6272H81.1272V142.505V151.172V151.672H81.6272H90.0926ZM80.4178 140.586H91.302C91.4901 140.586 91.6706 140.661 91.8036 140.794C91.9366 140.927 92.0113 141.107 92.0113 141.295V152.179C92.0113 152.368 91.9366 152.548 91.8036 152.681C91.6706 152.814 91.4901 152.889 91.302 152.889H80.4178C80.2297 152.889 80.0493 152.814 79.9163 152.681C79.7832 152.548 79.7085 152.368 79.7085 152.179V141.295C79.7085 141.107 79.7832 140.927 79.9163 140.794C80.0493 140.661 80.2297 140.586 80.4178 140.586Z" fill="#BDBDBD" stroke="#BDBDBD"/>
<path d="M90.0926 132.522H90.5926V132.022V123.355V122.855H90.0926H81.6272H81.1272V123.355V132.022V132.522H81.6272H90.0926ZM80.4178 121.437H91.302C91.4901 121.437 91.6706 121.511 91.8036 121.644C91.9366 121.777 92.0113 121.958 92.0113 122.146V133.03C92.0113 133.218 91.9366 133.399 91.8036 133.532C91.6706 133.665 91.4901 133.739 91.302 133.739H80.4178C80.2297 133.739 80.0493 133.665 79.9163 133.532C79.7832 133.399 79.7085 133.218 79.7085 133.03V122.146C79.7085 121.958 79.7832 121.777 79.9163 121.644C80.0493 121.511 80.2297 121.437 80.4178 121.437Z" fill="#BDBDBD" stroke="#BDBDBD"/>
<path d="M90.0926 113.371H90.5926V112.871V104.204V103.704H90.0926H81.6272H81.1272V104.204V112.871V113.371H81.6272H90.0926ZM80.4178 102.285H91.302C91.4901 102.285 91.6706 102.36 91.8036 102.493C91.9366 102.626 92.0113 102.806 92.0113 102.995V113.879C92.0113 114.067 91.9366 114.247 91.8036 114.38C91.6706 114.513 91.4901 114.588 91.302 114.588H80.4178C80.2297 114.588 80.0493 114.513 79.9163 114.38C79.7832 114.247 79.7085 114.067 79.7085 113.879V102.995C79.7085 102.806 79.7832 102.626 79.9163 102.493C80.0493 102.36 80.2297 102.285 80.4178 102.285Z" fill="#BDBDBD" stroke="#BDBDBD"/>
<path d="M97.1619 106.323C97.0288 106.19 96.9541 106.01 96.9541 105.822C96.9541 105.634 97.0288 105.453 97.1619 105.32C97.2949 105.187 97.4753 105.112 97.6635 105.112H112.85C113.038 105.112 113.218 105.187 113.351 105.32C113.484 105.453 113.559 105.634 113.559 105.822C113.559 106.01 113.484 106.19 113.351 106.323C113.218 106.456 113.038 106.531 112.85 106.531H97.6635C97.4753 106.531 97.2949 106.456 97.1619 106.323Z" fill="#BDBDBD" stroke="#BDBDBD"/>
<path d="M97.1619 111.161C97.0288 111.028 96.9541 110.848 96.9541 110.66C96.9541 110.471 97.0288 110.291 97.1619 110.158C97.2949 110.025 97.4753 109.95 97.6635 109.95H120.691C120.88 109.95 121.06 110.025 121.193 110.158C121.326 110.291 121.401 110.471 121.401 110.66C121.401 110.848 121.326 111.028 121.193 111.161C121.06 111.294 120.88 111.369 120.691 111.369H97.6635C97.4753 111.369 97.2949 111.294 97.1619 111.161Z" fill="#BDBDBD" stroke="#BDBDBD"/>
<path d="M79.5086 92.4207C79.6416 92.5537 79.7163 92.7341 79.7163 92.9222C79.7163 93.1104 79.6416 93.2908 79.5086 93.4238C79.3756 93.5569 79.1951 93.6316 79.007 93.6316H78.6039C78.4158 93.6316 78.2353 93.5569 78.1023 93.4238C77.9693 93.2908 77.8945 93.1104 77.8945 92.9222C77.8945 92.7341 77.9693 92.5537 78.1023 92.4207C78.2353 92.2876 78.4158 92.2129 78.6039 92.2129H79.007C79.1951 92.2129 79.3756 92.2876 79.5086 92.4207Z" fill="#BDBDBD" stroke="#BDBDBD"/>
<path d="M101.581 93.6316H83.038C82.8498 93.6316 82.6694 93.5569 82.5364 93.4238C82.4033 93.2908 82.3286 93.1104 82.3286 92.9222C82.3286 92.7341 82.4033 92.5537 82.5364 92.4207C82.6694 92.2876 82.8498 92.2129 83.038 92.2129H101.581C101.769 92.2129 101.95 92.2876 102.083 92.4207C102.216 92.5537 102.291 92.7341 102.291 92.9222C102.291 93.1104 102.216 93.2908 102.083 93.4238C101.95 93.5569 101.769 93.6316 101.581 93.6316Z" fill="#BDBDBD" stroke="#BDBDBD"/>
<mask id="path-31-inside-1_108_5188" fill="white">
<path d="M161.11 169.447L149.099 157.434C148.872 157.207 148.564 157.08 148.244 157.08C147.923 157.08 147.616 157.207 147.389 157.434L146.607 158.216L146.158 157.768C148.943 154.023 150.29 149.403 149.954 144.749C149.617 140.094 147.619 135.716 144.324 132.412C143.064 131.153 141.635 130.076 140.079 129.209V88.9876C140.079 88.5412 139.984 88.1 139.799 87.6936C139.614 87.2872 139.344 86.9252 139.008 86.6318L128.904 77.8168C128.299 77.2898 127.525 76.9994 126.723 76.9993H89.58C88.3688 76.9875 87.1792 77.3203 86.1499 77.9587C85.2 78.5458 84.4157 79.3656 83.8711 80.3405C83.3265 81.3154 83.0398 82.4131 83.0381 83.5298V85.8679H78.9327C77.1899 85.873 75.5199 86.5676 74.2875 87.8C73.0552 89.0323 72.3606 90.7023 72.3555 92.4451V156.085C72.3606 157.828 73.0551 159.497 74.2874 160.73C75.5196 161.962 77.1894 162.656 78.9321 162.662H120.221C123.313 164.638 126.907 165.687 130.578 165.685H130.581C134.774 165.679 138.852 164.309 142.199 161.783L142.645 162.204L141.863 162.973C141.751 163.085 141.662 163.217 141.601 163.363C141.54 163.509 141.509 163.666 141.509 163.824C141.509 163.982 141.54 164.139 141.601 164.285C141.662 164.431 141.751 164.563 141.863 164.674L153.875 176.685C154.835 177.641 156.136 178.178 157.491 178.177C158.847 178.175 160.147 177.636 161.105 176.678C162.064 175.719 162.603 174.419 162.604 173.063C162.605 171.708 162.068 170.407 161.111 169.447H161.11ZM128.59 80.8705L135.669 86.8757H128.59V80.8705ZM78.9337 160.243H78.9325C77.8307 160.24 76.7748 159.8 75.9957 159.021C75.2166 158.242 74.7774 157.186 74.7742 156.085V92.4453C74.7742 91.3424 75.2123 90.2846 75.9922 89.5047C76.7722 88.7247 77.83 88.2866 78.9329 88.2866H115.69V97.0421C115.69 97.3394 115.809 97.6244 116.019 97.8347C116.229 98.0449 116.514 98.1629 116.811 98.1629H126.978V111.415C126.973 111.736 127.092 112.046 127.31 112.281C127.529 112.515 127.829 112.657 128.15 112.675C128.312 112.68 128.473 112.653 128.624 112.594C128.775 112.536 128.913 112.447 129.029 112.334C129.145 112.222 129.238 112.087 129.301 111.937C129.364 111.788 129.397 111.628 129.396 111.466V97.8356C129.396 97.3913 129.301 96.9522 129.117 96.5478C128.933 96.1433 128.665 95.783 128.33 95.4909L118.241 86.6943C117.631 86.1617 116.849 85.8681 116.039 85.8679H85.4568V83.6368C85.4458 82.699 85.7448 81.7838 86.3073 81.0333C86.6917 80.5297 87.1874 80.1218 87.7556 79.8416C88.3238 79.5614 88.9491 79.4164 89.5827 79.418H126.172V88.1725C126.172 88.47 126.29 88.7554 126.5 88.9658C126.711 89.1762 126.996 89.2944 127.293 89.2944H137.66V128.067C135.033 127.038 132.213 126.591 129.396 126.757V119.931C129.396 119.61 129.269 119.303 129.042 119.076C128.815 118.849 128.508 118.722 128.187 118.722C127.866 118.722 127.559 118.849 127.332 119.076C127.105 119.303 126.978 119.61 126.978 119.931V127.057C125.085 127.419 123.256 128.059 121.55 128.956C121.438 128.843 121.304 128.753 121.157 128.691C121.009 128.63 120.851 128.598 120.692 128.598H97.6635C97.3428 128.598 97.0352 128.726 96.8084 128.952C96.5816 129.179 96.4542 129.487 96.4542 129.808C96.4542 130.128 96.5816 130.436 96.8084 130.663C97.0352 130.89 97.3428 131.017 97.6635 131.017H118.4C114.633 134.031 112.13 138.345 111.383 143.11H97.6635C97.3428 143.11 97.0352 143.238 96.8084 143.465C96.5816 143.691 96.4542 143.999 96.4542 144.32C96.4542 144.641 96.5816 144.948 96.8084 145.175C97.0352 145.402 97.3428 145.529 97.6635 145.529H111.158C111.151 145.736 111.147 145.942 111.147 146.15C111.147 146.818 111.18 147.485 111.248 148.149H97.6625C97.3418 148.149 97.0342 148.277 96.8074 148.504C96.5806 148.73 96.4532 149.038 96.4532 149.359C96.4532 149.679 96.5806 149.987 96.8074 150.214C97.0342 150.441 97.3418 150.568 97.6625 150.568H111.646C112.46 154.119 114.259 157.368 116.836 159.942C116.937 160.044 117.041 160.143 117.144 160.243H78.9337ZM118.109 95.7442V89.7414L125.006 95.7442H118.109ZM142.61 158.236C141.036 159.827 139.163 161.091 137.098 161.954C135.034 162.817 132.818 163.263 130.58 163.266H130.578C127.208 163.254 123.917 162.244 121.12 160.365C118.322 158.486 116.144 155.821 114.858 152.706C113.572 149.591 113.236 146.166 113.893 142.86C114.551 139.555 116.171 136.518 118.551 134.132C121.14 131.552 124.487 129.868 128.102 129.326C128.914 129.206 129.733 129.145 130.554 129.144C133.926 129.14 137.224 130.137 140.03 132.008C142.835 133.88 145.022 136.542 146.313 139.658C147.604 142.774 147.942 146.202 147.282 149.51C146.623 152.817 144.997 155.854 142.61 158.237V158.236ZM144.048 160.162C144.139 160.074 144.23 159.986 144.32 159.896C144.41 159.807 144.497 159.709 144.586 159.616L144.897 159.927L144.355 160.469L144.048 160.162ZM144.428 163.816L148.244 160.001L149.296 161.053L145.481 164.869L144.428 163.816ZM159.4 174.973C158.894 175.478 158.208 175.762 157.493 175.762C156.777 175.762 156.091 175.478 155.585 174.973L147.191 166.579L151.007 162.764L159.4 171.157C159.651 171.408 159.85 171.705 159.985 172.033C160.121 172.36 160.191 172.711 160.191 173.065C160.191 173.419 160.121 173.77 159.985 174.098C159.85 174.425 159.651 174.722 159.4 174.973Z"/>
</mask>
<path d="M161.11 169.447L149.099 157.434C148.872 157.207 148.564 157.08 148.244 157.08C147.923 157.08 147.616 157.207 147.389 157.434L146.607 158.216L146.158 157.768C148.943 154.023 150.29 149.403 149.954 144.749C149.617 140.094 147.619 135.716 144.324 132.412C143.064 131.153 141.635 130.076 140.079 129.209V88.9876C140.079 88.5412 139.984 88.1 139.799 87.6936C139.614 87.2872 139.344 86.9252 139.008 86.6318L128.904 77.8168C128.299 77.2898 127.525 76.9994 126.723 76.9993H89.58C88.3688 76.9875 87.1792 77.3203 86.1499 77.9587C85.2 78.5458 84.4157 79.3656 83.8711 80.3405C83.3265 81.3154 83.0398 82.4131 83.0381 83.5298V85.8679H78.9327C77.1899 85.873 75.5199 86.5676 74.2875 87.8C73.0552 89.0323 72.3606 90.7023 72.3555 92.4451V156.085C72.3606 157.828 73.0551 159.497 74.2874 160.73C75.5196 161.962 77.1894 162.656 78.9321 162.662H120.221C123.313 164.638 126.907 165.687 130.578 165.685H130.581C134.774 165.679 138.852 164.309 142.199 161.783L142.645 162.204L141.863 162.973C141.751 163.085 141.662 163.217 141.601 163.363C141.54 163.509 141.509 163.666 141.509 163.824C141.509 163.982 141.54 164.139 141.601 164.285C141.662 164.431 141.751 164.563 141.863 164.674L153.875 176.685C154.835 177.641 156.136 178.178 157.491 178.177C158.847 178.175 160.147 177.636 161.105 176.678C162.064 175.719 162.603 174.419 162.604 173.063C162.605 171.708 162.068 170.407 161.111 169.447H161.11ZM128.59 80.8705L135.669 86.8757H128.59V80.8705ZM78.9337 160.243H78.9325C77.8307 160.24 76.7748 159.8 75.9957 159.021C75.2166 158.242 74.7774 157.186 74.7742 156.085V92.4453C74.7742 91.3424 75.2123 90.2846 75.9922 89.5047C76.7722 88.7247 77.83 88.2866 78.9329 88.2866H115.69V97.0421C115.69 97.3394 115.809 97.6244 116.019 97.8347C116.229 98.0449 116.514 98.1629 116.811 98.1629H126.978V111.415C126.973 111.736 127.092 112.046 127.31 112.281C127.529 112.515 127.829 112.657 128.15 112.675C128.312 112.68 128.473 112.653 128.624 112.594C128.775 112.536 128.913 112.447 129.029 112.334C129.145 112.222 129.238 112.087 129.301 111.937C129.364 111.788 129.397 111.628 129.396 111.466V97.8356C129.396 97.3913 129.301 96.9522 129.117 96.5478C128.933 96.1433 128.665 95.783 128.33 95.4909L118.241 86.6943C117.631 86.1617 116.849 85.8681 116.039 85.8679H85.4568V83.6368C85.4458 82.699 85.7448 81.7838 86.3073 81.0333C86.6917 80.5297 87.1874 80.1218 87.7556 79.8416C88.3238 79.5614 88.9491 79.4164 89.5827 79.418H126.172V88.1725C126.172 88.47 126.29 88.7554 126.5 88.9658C126.711 89.1762 126.996 89.2944 127.293 89.2944H137.66V128.067C135.033 127.038 132.213 126.591 129.396 126.757V119.931C129.396 119.61 129.269 119.303 129.042 119.076C128.815 118.849 128.508 118.722 128.187 118.722C127.866 118.722 127.559 118.849 127.332 119.076C127.105 119.303 126.978 119.61 126.978 119.931V127.057C125.085 127.419 123.256 128.059 121.55 128.956C121.438 128.843 121.304 128.753 121.157 128.691C121.009 128.63 120.851 128.598 120.692 128.598H97.6635C97.3428 128.598 97.0352 128.726 96.8084 128.952C96.5816 129.179 96.4542 129.487 96.4542 129.808C96.4542 130.128 96.5816 130.436 96.8084 130.663C97.0352 130.89 97.3428 131.017 97.6635 131.017H118.4C114.633 134.031 112.13 138.345 111.383 143.11H97.6635C97.3428 143.11 97.0352 143.238 96.8084 143.465C96.5816 143.691 96.4542 143.999 96.4542 144.32C96.4542 144.641 96.5816 144.948 96.8084 145.175C97.0352 145.402 97.3428 145.529 97.6635 145.529H111.158C111.151 145.736 111.147 145.942 111.147 146.15C111.147 146.818 111.18 147.485 111.248 148.149H97.6625C97.3418 148.149 97.0342 148.277 96.8074 148.504C96.5806 148.73 96.4532 149.038 96.4532 149.359C96.4532 149.679 96.5806 149.987 96.8074 150.214C97.0342 150.441 97.3418 150.568 97.6625 150.568H111.646C112.46 154.119 114.259 157.368 116.836 159.942C116.937 160.044 117.041 160.143 117.144 160.243H78.9337ZM118.109 95.7442V89.7414L125.006 95.7442H118.109ZM142.61 158.236C141.036 159.827 139.163 161.091 137.098 161.954C135.034 162.817 132.818 163.263 130.58 163.266H130.578C127.208 163.254 123.917 162.244 121.12 160.365C118.322 158.486 116.144 155.821 114.858 152.706C113.572 149.591 113.236 146.166 113.893 142.86C114.551 139.555 116.171 136.518 118.551 134.132C121.14 131.552 124.487 129.868 128.102 129.326C128.914 129.206 129.733 129.145 130.554 129.144C133.926 129.14 137.224 130.137 140.03 132.008C142.835 133.88 145.022 136.542 146.313 139.658C147.604 142.774 147.942 146.202 147.282 149.51C146.623 152.817 144.997 155.854 142.61 158.237V158.236ZM144.048 160.162C144.139 160.074 144.23 159.986 144.32 159.896C144.41 159.807 144.497 159.709 144.586 159.616L144.897 159.927L144.355 160.469L144.048 160.162ZM144.428 163.816L148.244 160.001L149.296 161.053L145.481 164.869L144.428 163.816ZM159.4 174.973C158.894 175.478 158.208 175.762 157.493 175.762C156.777 175.762 156.091 175.478 155.585 174.973L147.191 166.579L151.007 162.764L159.4 171.157C159.651 171.408 159.85 171.705 159.985 172.033C160.121 172.36 160.191 172.711 160.191 173.065C160.191 173.419 160.121 173.77 159.985 174.098C159.85 174.425 159.651 174.722 159.4 174.973Z" fill="#BDBDBD" stroke="#BDBDBD" stroke-width="2" mask="url(#path-31-inside-1_108_5188)"/>
<path d="M130.56 132.492C129.9 132.492 129.242 132.54 128.59 132.636L128.59 132.636C126.451 132.951 124.417 133.769 122.656 135.023C120.895 136.277 119.456 137.931 118.459 139.85C117.461 141.768 116.934 143.896 116.919 146.058C116.904 148.22 117.402 150.355 118.373 152.287C119.344 154.219 120.76 155.893 122.504 157.171C124.248 158.449 126.27 159.295 128.405 159.639C130.54 159.983 132.725 159.816 134.783 159.151C136.84 158.486 138.71 157.342 140.239 155.813L141.093 154.96H141.024C142.509 153.199 143.53 151.085 143.981 148.813C144.508 146.161 144.236 143.412 143.199 140.915C142.163 138.417 140.408 136.284 138.158 134.784C135.908 133.285 133.263 132.487 130.56 132.492ZM130.56 132.492C130.559 132.492 130.559 132.492 130.559 132.492L130.56 132.992L130.56 132.492C130.56 132.492 130.56 132.492 130.56 132.492ZM139.357 155.96H139.886H139.886V155.46L139.357 155.96ZM130.583 131.071C134.582 131.072 138.418 132.661 141.245 135.49C143.354 137.599 144.79 140.286 145.372 143.212C145.953 146.137 145.654 149.169 144.512 151.925C143.37 154.68 141.437 157.035 138.957 158.692C136.477 160.349 133.561 161.233 130.578 161.232C127.595 161.232 124.68 160.347 122.2 158.689C119.72 157.032 117.788 154.676 116.647 151.921C115.506 149.165 115.208 146.132 115.79 143.207C116.373 140.282 117.809 137.595 119.919 135.486C122.747 132.659 126.583 131.071 130.583 131.071Z" fill="#BDBDBD" stroke="#BDBDBD"/>
<path d="M131.027 144.788C131.817 144.194 132.317 143.804 132.317 142.955C132.317 141.852 131.478 141.394 130.561 141.394C129.488 141.394 128.887 142.033 128.766 142.91C128.742 143.093 128.595 143.244 128.411 143.244L131.027 144.788ZM131.027 144.788C130.127 145.442 129.415 146.205 129.466 147.444L131.027 144.788ZM127.501 142.744C127.598 141.875 127.997 141.311 128.522 140.946C129.105 140.54 129.883 140.357 130.662 140.357C131.517 140.357 132.296 140.582 132.849 140.997C133.385 141.401 133.736 142.003 133.736 142.853C133.736 144.035 133.078 144.59 132.27 145.204C132.256 145.215 132.242 145.225 132.228 145.236C131.775 145.579 131.387 145.874 131.129 146.214C130.836 146.601 130.726 147.02 130.722 147.563H129.967L129.966 147.437L129.966 147.437L129.965 147.424C129.925 146.441 130.463 145.816 131.321 145.192L131.321 145.192L131.327 145.188L131.328 145.187C131.71 144.9 132.087 144.617 132.358 144.281C132.651 143.917 132.817 143.497 132.817 142.955C132.817 142.261 132.545 141.72 132.09 141.366C131.652 141.026 131.094 140.894 130.561 140.894C129.921 140.894 129.378 141.086 128.972 141.451C128.594 141.791 128.373 142.248 128.286 142.744H127.501ZM130.417 151.357C129.872 151.357 129.567 151.016 129.567 150.618C129.567 150.192 129.875 149.861 130.416 149.861C130.717 149.861 130.934 149.956 131.071 150.082C131.205 150.204 131.292 150.382 131.292 150.618C131.292 151.013 130.999 151.357 130.417 151.357Z" fill="#BDBDBD" stroke="#BDBDBD"/>
</svg>
