<svg width="20" height="19" viewBox="0 0 20 19" fill="none" xmlns="http://www.w3.org/2000/svg">
<path d="M15.6001 8.40127C15.6001 12.7915 9.95559 16.5545 9.95559 16.5545C9.95559 16.5545 4.31104 12.7915 4.31104 8.40127C4.31104 6.90424 4.90573 5.46853 5.96429 4.40997C7.02285 3.35141 8.45856 2.75671 9.95559 2.75671C11.4526 2.75671 12.8883 3.35141 13.9469 4.40997C15.0055 5.46853 15.6001 6.90424 15.6001 8.40127Z" stroke="#212429" stroke-width="1.37978" stroke-linecap="round" stroke-linejoin="round"/>
<path d="M9.95574 10.2828C10.9949 10.2828 11.8373 9.44043 11.8373 8.40129C11.8373 7.36216 10.9949 6.51978 9.95574 6.51978C8.9166 6.51978 8.07422 7.36216 8.07422 8.40129C8.07422 9.44043 8.9166 10.2828 9.95574 10.2828Z" stroke="#212429" stroke-width="1.37978" stroke-linecap="round" stroke-linejoin="round"/>
</svg>
