<svg width="24" height="20" viewBox="0 0 24 20" fill="none" xmlns="http://www.w3.org/2000/svg">
<g clip-path="url(#clip0_234_2381)">
<path d="M17.2689 0.68152L17.2689 0.68158C17.591 1.07021 17.7008 1.51738 17.6977 1.98713C17.6956 2.2875 17.6961 2.5876 17.6967 2.89606C17.6968 3.00641 17.697 3.11783 17.6971 3.23072H17.8994C18.2899 3.23072 18.6804 3.23069 19.0709 3.23066C20.2426 3.23057 21.4143 3.23048 22.586 3.23118C23.0717 3.23119 23.4535 3.34178 23.7139 3.58214C23.9759 3.82395 24.0975 4.18067 24.0975 4.63361C24.0975 5.29383 24.0973 5.95401 24.0972 6.61416C24.0967 8.59449 24.0962 10.5746 24.1 12.5549V12.555C24.1003 12.8216 24.0494 13.0637 23.9278 13.2739C23.806 13.4847 23.6174 13.6559 23.3547 13.787C23.3562 13.7863 23.3527 13.7879 23.346 13.7965C23.3393 13.805 23.332 13.8174 23.3252 13.833C23.3111 13.8654 23.3041 13.9004 23.3041 13.9231V13.9236C23.2986 15.1661 23.2988 16.4086 23.299 17.6514C23.299 17.8845 23.2991 18.1176 23.2991 18.3507C23.2991 18.4028 23.2995 18.4557 23.2999 18.509C23.3009 18.6298 23.3019 18.753 23.298 18.8747C23.2869 19.22 23.1557 19.5169 22.9307 19.7322C22.7063 19.9471 22.3944 20.0755 22.0301 20.0957L22.0299 20.0957C21.9494 20.1 21.8688 20.1 21.7918 20.1H21.7906C20.7861 20.1 19.7815 20.1001 18.777 20.1001C13.2515 20.1003 7.72572 20.1006 2.20027 20.0935H2.20023C1.91903 20.093 1.60645 20.0422 1.35122 19.9233L1.35108 19.9232C0.869269 19.6978 0.697376 19.2704 0.697908 18.8002M17.2689 0.68152L0.0788189 3.84466C0.0311564 3.92107 -0.00825315 4.0074 -0.0441812 4.0861C-0.0598951 4.12052 -0.0749429 4.15349 -0.089724 4.18352L-0.1 4.2044V4.22768V12.9094V12.9298L-0.0920698 12.9485C0.034677 13.2475 0.194475 13.5741 0.565199 13.7354L0.565329 13.7354C0.635636 13.7659 0.66399 13.7945 0.6784 13.82C0.694104 13.8478 0.702396 13.8876 0.701927 13.9597L0.701926 13.9599C0.697753 15.0772 0.697914 16.1943 0.698074 17.3113C0.698145 17.8076 0.698217 18.304 0.697908 18.8002M17.2689 0.68152C16.8014 0.118361 16.1721 -0.102365 15.4337 -0.0999808L17.2689 0.68152ZM0.697908 18.8002L0.797908 18.8004M0.697908 18.8002C0.697908 18.8003 0.697908 18.8003 0.697908 18.8003L0.797908 18.8004M0.797908 18.8004C0.798217 18.3039 0.798146 17.8075 0.798074 17.3111C0.797914 16.1942 0.797753 15.0773 0.801925 13.9603M0.797908 18.8004C0.797406 19.2444 0.957088 19.6285 1.39345 19.8326C1.63197 19.9438 1.92924 19.993 2.2004 19.9935C7.72578 20.0006 13.2515 20.0003 18.777 20.0001C19.7815 20.0001 20.7861 20 21.7906 20C21.8684 20 21.9467 20 22.0246 19.9958C22.7125 19.9577 23.1775 19.5132 23.1981 18.8715C23.2019 18.7519 23.2009 18.632 23.2 18.5123C23.1995 18.4584 23.1991 18.4045 23.1991 18.3507C23.1991 18.1177 23.199 17.8846 23.199 17.6516C23.1988 16.4087 23.1986 15.1659 23.2041 13.9231C23.2041 13.8459 23.2473 13.7287 23.3101 13.6976C23.8062 13.4498 24.0005 13.0629 24 12.5551L0.801925 13.9603M0.801925 13.9603C0.802929 13.8059 0.769286 13.7148 0.605084 13.6437L0.801925 13.9603ZM8.25737 -0.0853597L8.25739 -0.0853613C8.35954 -0.0919173 8.46345 -0.0971899 8.56805 -0.0971913L8.25737 -0.0853597ZM8.25737 -0.0853597C7.21103 -0.0179529 6.38775 0.724712 6.32115 1.71652L8.25737 -0.0853597ZM6.29984 3.08806L6.29984 3.08796C6.30192 2.94301 6.30166 2.79619 6.30139 2.64841L6.29984 3.08806ZM6.29984 3.08806C6.29922 3.13474 6.2957 3.1792 6.29155 3.23072M6.29984 3.08806L6.29155 3.23072M8.99343 0.843997H8.99341C8.94956 0.843997 8.90593 0.843862 8.86248 0.843728L8.99343 0.843997ZM8.99343 0.843997C9.30235 0.843931 9.61127 0.843855 9.92018 0.843779C11.774 0.843323 13.6278 0.842868 15.4815 0.844462H15.4816M8.99343 0.843997L15.4816 0.844462M15.4816 0.844462C15.8014 0.844685 16.0588 0.914389 16.2529 1.04056C16.4457 1.16592 16.5827 1.35134 16.6563 1.59668L16.6564 1.59725M15.4816 0.844462L16.6564 1.59725M16.6564 1.59725C16.6591 1.60599 16.662 1.61478 16.6645 1.62225L16.6656 1.62548C16.6685 1.63415 16.6708 1.64125 16.6728 1.64797C16.6767 1.66172 16.6777 1.66901 16.6777 1.67304V1.67332M16.6564 1.59725L16.6777 1.67332M16.6777 1.67332C16.6789 2.10537 16.6788 2.53768 16.6787 2.98115C16.6787 3.05963 16.6787 3.13846 16.6787 3.2177H16.0953C16.0953 2.82232 16.0953 2.43711 16.0948 2.05188C16.0948 1.93065 16.0888 1.82645 16.069 1.73967C16.0488 1.65123 16.013 1.5746 15.9491 1.51571C15.886 1.45752 15.8054 1.42579 15.7131 1.40785C15.6214 1.39003 15.5104 1.38437 15.3793 1.38426H15.3792M16.6777 1.67332L15.3792 1.38426M15.3792 1.38426C13.115 1.38426 10.8509 1.38426 8.58667 1.38472M15.3792 1.38426L8.31987 0.852224C7.81692 0.879403 7.37925 1.2141 7.33845 1.63298C7.30127 2.01448 7.30983 2.39644 7.31858 2.78708C7.32172 2.92736 7.32489 3.06875 7.32597 3.21165H7.90266C7.90263 3.09649 7.90254 2.98246 7.90245 2.86924C7.90223 2.58142 7.90201 2.29886 7.90268 2.01643C7.90318 1.80195 7.92878 1.62676 8.05088 1.51549C8.16963 1.40727 8.35364 1.38472 8.58667 1.38472M1.69732 18.7236V18.7236C1.69732 18.9338 1.72957 19.0267 1.7836 19.076C1.84086 19.1282 1.95048 19.1584 2.18383 19.1584H21.8177C22.0497 19.1584 22.158 19.1281 22.2145 19.0758C22.2684 19.026 22.3004 18.9319 22.3007 18.7198V13.9763C19.42 14.3447 16.562 14.7102 13.6957 15.0764C13.6958 15.1474 13.6961 15.2174 13.6965 15.2866C13.6974 15.4986 13.6983 15.7029 13.6945 15.9063L13.6945 15.9063C13.6808 16.622 13.1365 17.1204 12.3854 17.1352M1.69732 18.7236L12.3834 17.0353M1.69732 18.7236C1.69682 17.1831 1.69682 15.6422 1.69682 14.1017V13.9763C4.5802 14.3447 7.42793 14.7088 10.3019 15.0764C10.3019 15.1408 10.3018 15.2048 10.3017 15.2685C10.3015 15.4521 10.3013 15.6332 10.3019 15.8141V15.8141C10.3035 16.2229 10.4322 16.557 10.683 16.7883C10.9326 17.0185 11.2902 17.135 11.7268 17.1362M1.69732 18.7236L11.7271 17.0362M12.3854 17.1352L12.3834 17.0353M12.3854 17.1352C12.3854 17.1352 12.3855 17.1352 12.3855 17.1352L12.3834 17.0353M12.3854 17.1352C12.2092 17.139 12.0324 17.1379 11.8572 17.1369C11.8136 17.1366 11.7702 17.1364 11.7268 17.1362M12.3834 17.0353C12.2087 17.039 12.0336 17.0379 11.8585 17.0369C11.8147 17.0366 11.7709 17.0364 11.7271 17.0362M11.7268 17.1362L11.7271 17.0362M11.7268 17.1362C11.7268 17.1362 11.7267 17.1362 11.7267 17.1362L11.7271 17.0362M12.3576 16.195L12.3578 16.195C12.483 16.1919 12.5642 16.1596 12.6138 16.1133C12.662 16.0683 12.6943 15.9971 12.6951 15.8855C12.7002 15.1704 12.7002 14.4553 12.6946 13.7402C12.6938 13.6313 12.6615 13.563 12.6129 13.5197C12.5621 13.4745 12.4785 13.4429 12.3495 13.44C12.3495 13.44 12.3495 13.44 12.3495 13.44L12.3518 13.34L12.3576 16.195ZM12.3576 16.195C12.1174 16.2015 11.8771 16.2015 11.6369 16.195C11.5132 16.1917 11.4335 16.1591 11.3846 16.1125C11.3366 16.0668 11.3043 15.9944 11.3023 15.8814M12.3576 16.195L11.3013 13.7811C11.2989 14.0126 11.2996 14.2439 11.3002 14.476C11.3005 14.5834 11.3008 14.6909 11.3008 14.7987C11.3008 14.9081 11.3004 15.0171 11.3 15.1258C11.2991 15.3783 11.2981 15.6296 11.3023 15.8814M17.0406 13.6974L17.0407 13.6974C17.4062 13.6507 17.7717 13.6039 18.1372 13.5572C19.6341 13.3656 21.1313 13.174 22.6292 12.986C22.8634 12.9564 22.9672 12.9208 23.0213 12.865C23.0723 12.8124 23.0991 12.7199 23.0991 12.5012V4.64616C23.0991 4.62416 23.0994 4.60391 23.0998 4.58478C23.1005 4.5401 23.1012 4.50153 23.0971 4.46092L23.1966 4.45087L23.0971 4.46127C23.0873 4.36743 23.0576 4.30609 23.0155 4.26529C22.9728 4.22397 22.9063 4.19296 22.8025 4.18154L22.8024 4.18152C22.7249 4.17292 22.647 4.17325 22.5625 4.17362C22.5452 4.17369 22.5276 4.17377 22.5096 4.17377C15.5042 4.1733 8.4988 4.1733 1.49338 4.1733C1.47176 4.1733 1.45079 4.17314 1.43026 4.17299C1.38108 4.17261 1.33436 4.17226 1.28697 4.17415L1.28668 4.17416C1.12625 4.1801 1.03507 4.214 0.982774 4.26316C0.932705 4.31023 0.899644 4.38922 0.899414 4.53287L0.799414 4.53271M17.0406 13.6974L10.3035 14.0383C10.3038 14.0652 10.3041 14.0923 10.3044 14.1199C10.2471 14.1132 10.1903 14.1066 10.1341 14.1001C9.87779 14.0703 9.6317 14.0417 9.3862 14.0104L9.38616 14.0104C7.70781 13.7967 6.02948 13.5822 4.35128 13.3676C3.57172 13.268 2.7922 13.1683 2.01271 13.0688C1.92344 13.0574 1.83477 13.0466 1.74649 13.036C1.57987 13.0158 1.41458 12.9957 1.24908 12.9718C1.09885 12.9499 1.01751 12.9118 0.971424 12.8627C0.92705 12.8153 0.899414 12.7404 0.899414 12.6044L0.899414 12.6044C0.897908 9.91398 0.897908 7.22314 0.899414 4.53276L0.799414 4.53271M17.0406 13.6974C16.5832 13.7561 16.1259 13.8149 15.6687 13.8738C15.0594 13.9522 14.4503 14.0307 13.841 14.1085L13.841 14.1085M17.0406 13.6974L13.841 14.1085M0.799414 4.53271C0.797908 7.22312 0.797908 9.914 0.799414 12.6044L22.8134 4.08214C22.7297 4.07284 22.645 4.07322 22.5604 4.07361C22.5435 4.07369 22.5265 4.07377 22.5096 4.07377C15.5042 4.0733 8.4988 4.0733 1.49338 4.0733C1.47347 4.0733 1.45348 4.07315 1.43346 4.073C1.38327 4.07262 1.33287 4.07224 1.28298 4.07423C0.944032 4.08679 0.799916 4.21838 0.799414 4.53271ZM13.841 14.1085C13.7949 14.1144 13.75 14.1175 13.6954 14.121M13.841 14.1085L13.6954 14.121M13.6954 14.121C13.6955 14.1002 13.6957 14.0794 13.6958 14.0588C13.6965 13.9416 13.6973 13.8278 13.6945 13.7151L13.6945 13.7151C13.677 13.0208 13.1503 12.5251 12.4213 12.5012L13.6954 14.121ZM6.29155 3.23072H6.07896C5.62811 3.23072 5.17728 3.23087 4.72648 3.23102C3.59956 3.2314 2.47277 3.23178 1.34592 3.22979L6.29155 3.23072ZM8.58667 1.38472V1.48472V1.38472ZM11.3023 15.8814L11.2023 15.883L11.3023 15.8813C11.3023 15.8813 11.3023 15.8813 11.3023 15.8814ZM11.5232 12.5045C10.861 12.5345 10.3359 13.0231 10.3066 13.6524L11.5233 12.5045L11.5232 12.5045ZM15.4336 -0.0999807C13.9079 -0.0959513 12.3823 -0.0964679 10.8567 -0.0969846C10.0938 -0.097243 9.33098 -0.0975013 8.56809 -0.0971913L15.4336 -0.0999807ZM15.0818 2.33707V3.21491H8.91615V2.33707H15.0818Z" fill="black" stroke="black" stroke-width="0.2"/>
</g>
<defs>
<clipPath id="clip0_234_2381">
<rect width="24" height="20" fill="white"/>
</clipPath>
</defs>
</svg>
