<svg width="23" height="23" viewBox="0 0 23 23" fill="none" xmlns="http://www.w3.org/2000/svg">
<path d="M18.2352 3.45472C18.4625 4.00445 18.8988 4.44142 19.4482 4.66955L21.3745 5.46751C21.9243 5.69524 22.3611 6.13203 22.5888 6.68181C22.8165 7.23158 22.8165 7.84931 22.5888 8.39908L21.7914 10.3241C21.5636 10.8742 21.5633 11.4925 21.7922 12.0423L22.5881 13.9668C22.701 14.2391 22.7592 14.5309 22.7592 14.8257C22.7592 15.1205 22.7012 15.4124 22.5884 15.6847C22.4756 15.957 22.3103 16.2045 22.1018 16.4129C21.8933 16.6213 21.6459 16.7865 21.3735 16.8993L19.4485 17.6967C18.8988 17.924 18.4618 18.3603 18.2337 18.9097L17.4358 20.8361C17.2081 21.3859 16.7713 21.8227 16.2215 22.0504C15.6718 22.2781 15.0541 22.2781 14.5043 22.0504L12.5793 21.253C12.0296 21.0259 11.4121 21.0263 10.8627 21.2543L8.93628 22.0511C8.38683 22.2783 7.76967 22.2781 7.22036 22.0506C6.67105 21.823 6.23451 21.3868 6.00664 20.8376L5.20847 18.9106C4.98118 18.3608 4.54488 17.9239 3.99551 17.6957L2.06914 16.8978C1.51962 16.6701 1.08297 16.2336 0.855172 15.6842C0.627372 15.1347 0.627062 14.5173 0.854313 13.9676L1.65167 12.0425C1.87883 11.4927 1.87836 10.8752 1.65038 10.3258L0.854168 8.39795C0.74128 8.12565 0.683153 7.83378 0.683105 7.53901C0.683058 7.24424 0.741092 6.95235 0.853892 6.68001C0.966692 6.40768 1.13205 6.16024 1.34051 5.95184C1.54897 5.74344 1.79645 5.57816 2.06881 5.46544L3.9938 4.66806C4.54304 4.44095 4.97972 4.00519 5.20801 3.45643L6.00595 1.52999C6.23366 0.980211 6.67044 0.543416 7.2202 0.315691C7.76995 0.0879663 8.38765 0.0879663 8.93741 0.315691L10.8624 1.11308C11.4122 1.34024 12.0296 1.33978 12.5791 1.11179L14.5063 0.316928C15.0559 0.0893308 15.6735 0.0893773 16.2232 0.317057C16.7728 0.544737 17.2095 0.981407 17.4373 1.53104L18.2354 3.45806L18.2352 3.45472Z" fill="#4CA819"/>
<path d="M8.41113 11.7311L10.6188 13.9388L15.586 8.97156" stroke="white" stroke-width="1.7594" stroke-linecap="round" stroke-linejoin="round"/>
</svg>
