<svg width="20" height="20" viewBox="0 0 20 20" fill="none" xmlns="http://www.w3.org/2000/svg">
<path d="M18.7162 10.0217C18.0464 8.35068 16.8836 6.90561 15.3716 5.86505C13.8596 4.8245 12.0646 4.23407 10.2084 4.16675C8.35227 4.23407 6.55725 4.8245 5.04523 5.86505C3.53321 6.90561 2.37045 8.35068 1.70067 10.0217C1.65544 10.1423 1.65544 10.2745 1.70067 10.3952C2.37045 12.0661 3.53321 13.5112 5.04523 14.5518C6.55725 15.5923 8.35227 16.1828 10.2084 16.2501C12.0646 16.1828 13.8596 15.5923 15.3716 14.5518C16.8836 13.5112 18.0464 12.0661 18.7162 10.3952C18.7614 10.2745 18.7614 10.1423 18.7162 10.0217ZM10.2084 15.1516C7.19027 15.1516 4.00129 12.9931 2.84529 10.2084C4.00129 7.42376 7.19027 5.26523 10.2084 5.26523C13.2266 5.26523 16.4155 7.42376 17.5715 10.2084C16.4155 12.9931 13.2266 15.1516 10.2084 15.1516Z" fill="#101010"/>
<path d="M10.2083 6.91357C9.5325 6.91357 8.8719 7.10685 8.31002 7.46896C7.74813 7.83107 7.3102 8.34575 7.05159 8.94791C6.79298 9.55008 6.72532 10.2127 6.85716 10.8519C6.98899 11.4912 7.31441 12.0784 7.79225 12.5393C8.2701 13.0001 8.8789 13.314 9.54169 13.4412C10.2045 13.5683 10.8915 13.5031 11.5158 13.2536C12.1401 13.0042 12.6738 12.5818 13.0492 12.0399C13.4246 11.498 13.625 10.8608 13.625 10.209C13.625 9.33502 13.2651 8.49681 12.6243 7.87879C11.9835 7.26077 11.1145 6.91357 10.2083 6.91357ZM10.2083 12.406C9.75776 12.406 9.31736 12.2771 8.94277 12.0357C8.56818 11.7943 8.27622 11.4512 8.10382 11.0498C7.93141 10.6483 7.8863 10.2066 7.97419 9.78042C8.06209 9.35425 8.27903 8.96279 8.59759 8.65554C8.91615 8.34828 9.32203 8.13904 9.76388 8.05427C10.2057 7.9695 10.6637 8.01301 11.08 8.17929C11.4962 8.34558 11.8519 8.62717 12.1022 8.98846C12.3525 9.34975 12.4861 9.77451 12.4861 10.209C12.4861 10.7917 12.2461 11.3505 11.8189 11.7625C11.3918 12.1745 10.8124 12.406 10.2083 12.406Z" fill="#101010"/>
</svg>
